<?xml version="1.0" encoding="iso-8859-1"?>
<!-- Generator: Adobe Illustrator 19.0.0, SVG Export Plug-In . SVG Version: 6.00 Build 0)  -->
<svg version="1.1" id="Capa_1" xmlns="http://www.w3.org/2000/svg" xmlns:xlink="http://www.w3.org/1999/xlink" x="0px" y="0px"
	 viewBox="0 0 456 456" style="enable-background:new 0 0 456 456;" xml:space="preserve">
<polygon style="fill:#CCCCCC;" points="200,0 376,104 376,312 200,416 24,312 24,104 "/>
<polygon style="fill:#999999;" points="376,104 200,208 24,104 200,0 "/>
<polygon style="fill:#808080;" points="200,208 200,416 376,312 376,104 "/>
<polygon style="fill:#6B968B;" points="81.336,137.88 81.336,209.88 138.664,243.76 138.664,171.76 314.664,67.76 257.336,33.88 "/>
<polygon style="fill:#608778;" points="81.336,137.88 81.336,209.88 138.664,243.76 138.664,171.76 "/>
<circle style="fill:#EB9850;" cx="344" cy="368" r="88"/>
<circle style="fill:#FFFFFF;" cx="344" cy="368" r="56"/>
<g>
	<path style="fill:#999999;" d="M56,304c-4.418,0-8-3.582-8-8v-32c0-4.418,3.582-8,8-8s8,3.582,8,8v32C64,300.418,60.418,304,56,304
		z"/>
	<path style="fill:#999999;" d="M88,320c-4.418,0-8-3.582-8-8v-32c0-4.418,3.582-8,8-8s8,3.582,8,8v32C96,316.418,92.418,320,88,320
		z"/>
</g>
<path style="fill:#F9CD74;" d="M332,396c-2.122,0-4.156-0.844-5.656-2.344l-12-12c-3.07-3.178-2.982-8.242,0.196-11.312
	c3.1-2.995,8.016-2.995,11.116,0l6.344,6.344l30.344-30.344c3.178-3.07,8.242-2.982,11.312,0.196c2.995,3.1,2.995,8.016,0,11.116
	l-36,36C336.156,395.156,334.122,396,332,396z"/>
<g>
</g>
<g>
</g>
<g>
</g>
<g>
</g>
<g>
</g>
<g>
</g>
<g>
</g>
<g>
</g>
<g>
</g>
<g>
</g>
<g>
</g>
<g>
</g>
<g>
</g>
<g>
</g>
<g>
</g>
</svg>
