<?xml version="1.0" encoding="iso-8859-1"?>
<!-- Generator: Adobe Illustrator 19.0.0, SVG Export Plug-In . SVG Version: 6.00 Build 0)  -->
<svg version="1.1" id="Capa_1" xmlns="http://www.w3.org/2000/svg" xmlns:xlink="http://www.w3.org/1999/xlink" x="0px" y="0px"
	 viewBox="0 0 472.002 472.002" style="enable-background:new 0 0 472.002 472.002;" xml:space="preserve">
<g>
	<polygon style="fill:#CCCCCC;" points="208.002,8.002 384.002,112.002 384.002,320.002 208.002,424.002 32.002,320.002 
		32.002,112.002 	"/>
	<polygon style="fill:#999999;" points="384.002,112.002 208.002,216.002 32.002,112.002 208.002,8.002 	"/>
	<polygon style="fill:#808080;" points="208.002,216.002 208.002,424.002 384.002,320.002 384.002,112.002 	"/>
	<polygon style="fill:#6B968B;" points="89.338,145.882 89.338,217.882 146.666,251.762 146.666,179.762 322.666,75.762 
		265.338,41.882 	"/>
	<polygon style="fill:#608778;" points="89.338,145.882 89.338,217.882 146.666,251.762 146.666,179.762 	"/>
	<circle style="fill:#EB9850;" cx="352.002" cy="376.002" r="88"/>
	<circle style="fill:#FFFFFF;" cx="352.002" cy="376.002" r="56"/>
</g>
<g>
	<g>
		<path style="fill:#294F61;" d="M208.002,224.002c-1.432,0.001-2.839-0.383-4.072-1.112l-176-104
			c-3.804-2.249-5.065-7.156-2.816-10.96c2.249-3.804,7.156-5.065,10.96-2.816l171.928,101.6l144.848-85.6
			c3.804-2.249,8.711-0.988,10.96,2.816c2.249,3.804,0.988,8.711-2.816,10.96l-148.92,88
			C210.841,223.618,209.435,224.002,208.002,224.002z"/>
		<path style="fill:#294F61;" d="M208.002,360.002c-4.418,0-8-3.582-8-8v-136c0-4.418,3.582-8,8-8s8,3.582,8,8v136
			C216.002,356.42,212.421,360.002,208.002,360.002z"/>
		<path style="fill:#294F61;" d="M208.002,432.002c-4.418,0-8-3.582-8-8v-40c0-4.418,3.582-8,8-8s8,3.582,8,8v40
			C216.002,428.42,212.421,432.002,208.002,432.002z"/>
		<path style="fill:#294F61;" d="M192.002,93.21c-4.418,0.006-8.005-3.571-8.011-7.989c-0.004-2.834,1.491-5.458,3.931-6.899
			l73.336-43.336c3.815-2.251,8.733-0.983,10.984,2.832c2.251,3.815,0.983,8.733-2.832,10.984l-73.336,43.336
			C194.836,92.849,193.431,93.219,192.002,93.21z"/>
		<path style="fill:#294F61;" d="M146.666,259.77c-1.432-0.002-2.838-0.386-4.072-1.112l-57.328-33.856
			c-2.438-1.441-3.931-4.064-3.928-6.896v-72c-0.001-2.829,1.493-5.448,3.928-6.888L163.93,92.53
			c3.806-2.249,8.715-0.986,10.964,2.82c2.249,3.806,0.986,8.715-2.82,10.964l0,0l-74.736,44.16v62.88l41.328,24.424v-58.016
			c-0.003-2.832,1.49-5.455,3.928-6.896l176-104c3.806-2.249,8.715-0.986,10.964,2.82c2.249,3.806,0.986,8.715-2.82,10.964l0,0
			L154.666,184.322v67.448C154.666,256.188,151.085,259.77,146.666,259.77z"/>
	</g>
	<g>
		<path style="fill:#999999;" d="M64.002,312.002c-4.418,0-8-3.582-8-8v-32c0-4.418,3.582-8,8-8s8,3.582,8,8v32
			C72.002,308.42,68.421,312.002,64.002,312.002z"/>
		<path style="fill:#999999;" d="M96.002,328.002c-4.418,0-8-3.582-8-8v-32c0-4.418,3.582-8,8-8s8,3.582,8,8v32
			C104.002,324.42,100.421,328.002,96.002,328.002z"/>
	</g>
	<g>
		<path style="fill:#294F61;" d="M352.002,440.002c-35.346,0-64-28.654-64-64s28.654-64,64-64c4.418,0,8,3.582,8,8s-3.582,8-8,8
			c-26.51,0.013-47.989,21.514-47.976,48.024c0.013,26.51,21.514,47.989,48.024,47.976c26.51-0.013,47.989-21.514,47.976-48.024
			c-0.008-15.963-7.951-30.877-21.192-39.792c-3.588-2.579-4.405-7.578-1.826-11.165c2.475-3.443,7.207-4.357,10.786-2.083
			c29.306,19.761,37.045,59.538,17.284,88.844C393.179,429.429,373.286,440.006,352.002,440.002z"/>
		<path style="fill:#294F61;" d="M352.002,472.002c-53.019,0-96-42.981-96-96s42.981-96,96-96s96,42.981,96,96
			C447.945,428.997,404.998,471.945,352.002,472.002z M352.002,296.002c-44.183,0-80,35.817-80,80s35.817,80,80,80s80-35.817,80-80
			C431.954,331.839,396.165,296.05,352.002,296.002z"/>
	</g>
	<path style="fill:#F9CD74;" d="M340.002,404.002c-2.122,0-4.156-0.844-5.656-2.344l-12-12c-3.07-3.178-2.982-8.242,0.196-11.312
		c3.1-2.995,8.016-2.995,11.116,0l6.344,6.344l30.344-30.344c3.178-3.07,8.242-2.982,11.312,0.196c2.995,3.1,2.995,8.016,0,11.116
		l-36,36C344.158,403.158,342.124,404.001,340.002,404.002z"/>
	<path style="fill:#294F61;" d="M208.002,432.002c-1.432,0.001-2.839-0.383-4.072-1.112l-176-104
		c-2.435-1.44-3.929-4.059-3.928-6.888v-208c-0.001-2.829,1.493-5.448,3.928-6.888l176-104c2.512-1.485,5.632-1.485,8.144,0l176,104
		c2.435,1.44,3.929,4.059,3.928,6.888v182.024c0,4.418-3.582,8-8,8s-8-3.582-8-8V116.562l-168-99.272l-168,99.272v198.88l168,99.272
		l53.096-31.384c3.806-2.247,8.713-0.982,10.96,2.824s0.982,8.713-2.824,10.96l0,0l-57.16,33.776
		C210.841,431.618,209.435,432.002,208.002,432.002z"/>
</g>
<g>
</g>
<g>
</g>
<g>
</g>
<g>
</g>
<g>
</g>
<g>
</g>
<g>
</g>
<g>
</g>
<g>
</g>
<g>
</g>
<g>
</g>
<g>
</g>
<g>
</g>
<g>
</g>
<g>
</g>
</svg>
