<?xml version="1.0" encoding="iso-8859-1"?>
<!-- Generator: Adobe Illustrator 19.0.0, SVG Export Plug-In . SVG Version: 6.00 Build 0)  -->
<svg version="1.1" id="Layer_1" xmlns="http://www.w3.org/2000/svg" xmlns:xlink="http://www.w3.org/1999/xlink" x="0px" y="0px"
	 viewBox="0 0 511.998 511.998" style="enable-background:new 0 0 511.998 511.998;" xml:space="preserve">
<g>
	<path style="fill:#EAC092;" d="M30.583,201.7v-31.905H23.51c-8.62,0-15.673,7.053-15.673,15.673v19.443
		c0,8.62,7.053,15.673,15.673,15.673h8.943C31.229,214.481,30.583,208.167,30.583,201.7z"/>
	<path style="fill:#EAC092;" d="M227.964,169.795h-7.074V201.7c0,6.466-0.649,12.78-1.874,18.885h8.947
		c8.62,0,15.673-7.053,15.673-15.673v-19.443C243.638,176.848,236.585,169.795,227.964,169.795z"/>
</g>
<path style="fill:#F39600;" d="M145.077,331.12l-15.281-12.383c-2.233-1.809-5.886-1.809-8.119,0l-15.282,12.383
	c-2.233,1.809-5.886,1.809-8.119,0l-19.3-15.642c-2.233-1.809-4.059-5.64-4.059-8.514v-2.098H25.932
	c-5.747,0-10.449,4.702-10.449,10.449v114.447c0,5.747,4.702,10.449,10.449,10.449h125.431v-108.1
	C149.275,332.818,146.769,332.492,145.077,331.12z"/>
<g style="opacity:0.1;">
	<path d="M37.616,429.763V315.316c0-5.747,4.702-10.449,10.449-10.449H25.933c-5.747,0-10.449,4.702-10.449,10.449v114.447
		c0,5.747,4.702,10.449,10.449,10.449h22.132C42.318,440.212,37.616,435.51,37.616,429.763z"/>
</g>
<path style="fill:#FFFFFF;" d="M74.918,282.321v24.643c0,2.873,1.826,6.705,4.059,8.514l19.3,15.642
	c2.233,1.809,5.886,1.809,8.119,0l15.282-12.383c2.233-1.809,5.886-1.809,8.119,0l15.281,12.383
	c1.693,1.372,4.198,1.698,6.287,0.991v-38.563c-8.153,2.28-16.747,3.502-25.626,3.502C107.049,297.05,89.622,291.647,74.918,282.321
	z"/>
<path style="opacity:0.1;enable-background:new    ;" d="M74.918,282.321v24.643c0,2.873,1.826,6.705,4.059,8.514l12.691,10.286
	V290.75C85.782,288.486,80.175,285.656,74.918,282.321z"/>
<path style="fill:#EAC092;" d="M361.535,455.12c0,2.873-2.351,5.224-5.224,5.224H156.587c-2.873,0-5.225-2.351-5.225-5.224V282.06
	c0-2.873,2.351-5.224,5.225-5.224H356.31c2.873,0,5.224,2.351,5.224,5.224V455.12z"/>
<path style="fill:#F8D5AB;" d="M200.968,149.92c0.043,0.042,0.086,0.083,0.127,0.124c6.157,6.17,6.157,16.173,0,22.342
	c-3.079,3.085-7.114,4.628-11.148,4.628c-4.035,0-8.07-1.543-11.148-4.628c-29.26-29.319-76.868-29.319-106.126,0
	c-6.158,6.17-16.138,6.17-22.296,0c-6.155-6.169-6.155-16.172,0-22.342c0.042-0.042,0.085-0.083,0.127-0.124H30.583v51.78
	c0,52.66,42.602,95.35,95.155,95.35c8.878,0,17.473-1.223,25.626-3.502V282.06c0-2.873,2.351-5.224,5.225-5.224h27.736
	c22.258-17.453,36.566-44.619,36.566-75.135v-51.78H200.968z"/>
<path style="opacity:0.1;enable-background:new    ;" d="M53.29,201.7v-27.029c-1.033-0.636-2.017-1.388-2.912-2.284
	c-6.155-6.169-6.155-16.172,0-22.342c0.042-0.042,0.085-0.083,0.127-0.124H30.583v51.78c0,52.66,42.602,95.35,95.155,95.35
	c3.842,0,7.63-0.235,11.353-0.678C89.892,290.748,53.29,250.511,53.29,201.7z"/>
<path style="fill:#F39600;" d="M200.205,53.52H51.269c-11.377,0-20.686,9.328-20.686,20.728v75.674h19.922
	c41.521-41.47,108.942-41.47,150.463,0h19.921V74.248C220.889,62.847,211.581,53.52,200.205,53.52z"/>
<path style="opacity:0.1;enable-background:new    ;" d="M53.29,147.246V74.248c0-11.4,9.309-20.728,20.686-20.728H51.269
	c-11.377,0-20.686,9.328-20.686,20.728v75.674h19.922C51.419,149.007,52.35,148.12,53.29,147.246z"/>
<path style="fill:#FFFFFF;" d="M155.516,88.249c0,5.747-4.702,10.449-10.449,10.449h-38.661c-5.747,0-10.449-4.702-10.449-10.449
	v-3.956c0-5.747,4.702-10.449,10.449-10.449h38.661c5.747,0,10.449,4.702,10.449,10.449V88.249z"/>
<path style="fill:#E9510F;" d="M189.948,177.015c-4.035,0-8.07-1.543-11.148-4.628c-29.26-29.319-76.868-29.319-106.126,0
	c-6.158,6.17-16.138,6.17-22.296,0c-6.155-6.169-6.155-16.172,0-22.342c41.552-41.639,109.166-41.639,150.718,0
	c6.157,6.17,6.157,16.173,0,22.342C198.017,175.472,193.982,177.015,189.948,177.015z"/>
<g>
	<path style="fill:#8C6748;" d="M291.111,201.7v-31.905h-7.074c-8.62,0-15.673,7.053-15.673,15.673v19.443
		c0,8.62,7.053,15.673,15.673,15.673h8.947C291.76,214.481,291.111,208.167,291.111,201.7z"/>
	<path style="fill:#8C6748;" d="M488.49,169.795h-7.073V201.7c0,6.466-0.646,12.78-1.87,18.885h8.943
		c8.62,0,15.673-7.053,15.673-15.673v-19.443C504.163,176.848,497.11,169.795,488.49,169.795z"/>
</g>
<path style="fill:#35D34F;" d="M486.067,304.867h-71.706v5.809c0,15.551-12.58,28.156-28.098,28.156
	c-10.685,0-19.977-5.978-24.728-14.778v116.158h124.532c5.747,0,10.449-4.702,10.449-10.449V315.316
	C496.516,309.569,491.814,304.867,486.067,304.867z"/>
<path style="fill:#8C6748;" d="M386.262,297.05c-8.554,0-16.842-1.138-24.728-3.259v30.262c4.751,8.8,14.043,14.778,24.728,14.778
	c15.519,0,28.098-12.605,28.098-28.156v-17.852C405.48,295.57,396.043,297.05,386.262,297.05z"/>
<path style="fill:#B79363;" d="M332.242,119.005l-41.132,81.707v0.988c0,30.516,14.308,57.683,36.566,75.135h28.634
	c2.873,0,5.224,2.351,5.224,5.224v11.731c7.886,2.121,16.174,3.259,24.728,3.259c52.552,0,95.154-42.689,95.154-95.35v-0.988
	l-41.191-81.707L332.242,119.005L332.242,119.005z"/>
<g style="opacity:0.1;">
	<path d="M327.677,276.836h22.366c-22.263-17.45-36.574-44.616-36.574-75.135v-45.404l-22.359,44.415v0.988
		C291.111,232.217,305.418,259.384,327.677,276.836z"/>
</g>
<path style="fill:#FFCB00;" d="M332.242,119.005h107.984l41.191,81.707v-53.71c0-52.66-42.602-95.35-95.154-95.35
	c-52.551,0-95.153,42.689-95.153,95.35v53.71L332.242,119.005z"/>
<g style="opacity:0.1;">
	<path d="M313.469,147.001c0-48.869,36.692-89.145,83.973-94.691c-3.668-0.43-7.397-0.658-11.179-0.658
		c-52.551,0-95.153,42.689-95.153,95.35v53.71l22.359-44.415V147.001z"/>
</g>
<path style="fill:#72563C;" d="M276.291,336.935c2.873,0,5.224-2.351,5.224-5.224v-49.65c0-2.873-2.351-5.224-5.224-5.224h-39.685
	c-2.873,0-5.224,2.351-5.224,5.224v49.65c0,2.873,2.351,5.224,5.224,5.224H276.291z"/>
<g style="opacity:0.1;">
	<path d="M248.686,331.711v-49.65c0-2.873,2.351-5.224,5.224-5.224h-17.305c-2.873,0-5.224,2.351-5.224,5.224v49.65
		c0,2.873,2.351,5.224,5.224,5.224h17.305C251.037,336.935,248.686,334.584,248.686,331.711z"/>
</g>
<g style="opacity:0.1;">
	<path d="M179.722,455.12V282.06c0-2.873,2.351-5.224,5.224-5.224h-28.36c-2.873,0-5.225,2.351-5.225,5.224v173.06
		c0,2.873,2.351,5.224,5.225,5.224h28.36C182.073,460.345,179.722,457.994,179.722,455.12z"/>
</g>
<path style="fill:#009E2F;" d="M237.219,434.715c0,1.724-1.411,3.135-3.135,3.135h-55.542c-1.724,0-3.135-1.411-3.135-3.135v-23.543
	c0-1.724,1.411-3.135,3.135-3.135h55.542c1.724,0,3.135,1.411,3.135,3.135V434.715z"/>
<path style="fill:#B79363;" d="M350.605,378.767h13.457v-1.496c0-4.659,3.813-8.472,8.473-8.472h25.42
	c4.66,0,8.473,3.813,8.473,8.472l4.984,1.496c5.483,0,9.968,4.486,9.968,9.968v41.868c0,5.483-4.486,9.968-9.968,9.968h-60.808
	c-5.483,0-9.968-4.486-9.968-9.968v-41.868C340.637,383.252,345.122,378.767,350.605,378.767z"/>
<path style="fill:#F8D5AB;" d="M163.772,378.767h-13.457v-1.496c0-4.659-3.813-8.472-8.473-8.472h-25.42
	c-4.66,0-8.473,3.813-8.473,8.472l-4.984,1.496c-5.483,0-9.968,4.486-9.968,9.968v41.868c0,5.483,4.486,9.968,9.968,9.968h60.808
	c5.483,0,9.968-4.486,9.968-9.968v-41.868C173.741,383.252,169.255,378.767,163.772,378.767z"/>
<path d="M106.406,106.535h38.661c10.082,0,18.286-8.203,18.286-18.286v-3.956c0-10.082-8.203-18.286-18.286-18.286h-38.661
	c-10.082,0-18.286,8.202-18.286,18.286v3.956C88.12,98.332,96.324,106.535,106.406,106.535z M103.794,84.293
	c0-1.416,1.196-2.612,2.612-2.612h38.661c1.416,0,2.612,1.196,2.612,2.612v3.956c0,1.416-1.196,2.612-2.612,2.612h-38.661
	c-1.416,0-2.612-1.196-2.612-2.612V84.293z"/>
<path d="M81.671,207.265c-4.328,0-7.837,3.509-7.837,7.837v11.494c0,4.328,3.509,7.837,7.837,7.837s7.837-3.509,7.837-7.837v-11.494
	C89.508,210.774,85.999,207.265,81.671,207.265z"/>
<path d="M169.802,207.265c-4.328,0-7.837,3.509-7.837,7.837v11.494c0,4.328,3.509,7.837,7.837,7.837
	c4.328,0,7.837-3.509,7.837-7.837v-11.494C177.639,210.774,174.13,207.265,169.802,207.265z"/>
<path d="M135.776,228.218h-5.548v-13.152c0-4.328-3.509-7.837-7.837-7.837s-7.837,3.509-7.837,7.837v15.764
	c0,7.202,5.859,13.061,13.061,13.061h8.161c4.328,0,7.837-3.509,7.837-7.837C143.613,231.726,140.105,228.218,135.776,228.218z"/>
<path d="M489.254,161.978v-7.261v-7.716c0-56.898-46.201-103.187-102.99-103.187c-56.788,0-102.989,46.289-102.989,103.187v7.716
	v7.261c-12.611,0.405-22.747,10.782-22.747,23.491v19.443c0,12.964,10.546,23.51,23.51,23.51h2.741
	c4.069,15.187,11.522,28.997,21.49,40.577H203.733c9.968-11.58,17.423-25.39,21.49-40.577h2.741c12.964,0,23.51-10.546,23.51-23.51
	V185.47c0-12.708-10.137-23.086-22.747-23.491v-7.261c0-1.26-0.03-2.516-0.075-3.769c0.044-0.336,0.075-0.678,0.075-1.027V74.248
	c0-15.751-12.795-28.564-28.522-28.564H96.131c-4.328,0-7.837,3.509-7.837,7.837s3.509,7.837,7.837,7.837h104.074
	c7.084,0,12.848,5.782,12.848,12.891v67.837h-8.908c-5.595-5.279-11.704-9.984-18.201-14.013c-3.679-2.281-8.51-1.148-10.79,2.531
	c-2.281,3.678-1.148,8.51,2.531,10.79c6.449,3.999,12.459,8.773,17.863,14.189c3.101,3.108,3.101,8.164,0.002,11.27
	c-1.498,1.5-3.488,2.328-5.602,2.328c-2.114,0-4.103-0.827-5.601-2.327c-15.632-15.664-36.447-24.291-58.611-24.291
	c-22.163,0.001-42.978,8.627-58.609,24.292c-1.497,1.5-3.486,2.326-5.601,2.326c-2.115,0-4.103-0.827-5.601-2.326
	c-3.1-3.108-3.1-8.164,0-11.271c25.177-25.229,62.19-34.902,96.603-25.247c4.166,1.168,8.493-1.261,9.663-5.428
	c1.169-4.167-1.261-8.493-5.428-9.662c-38.739-10.869-80.333-0.583-109.427,26.84h-8.915V74.248c0-7.108,5.765-12.891,12.849-12.891
	h12.469c4.328,0,7.837-3.509,7.837-7.837s-3.509-7.837-7.837-7.837h-12.47c-15.728,0-28.523,12.814-28.523,28.564v75.674
	c0,0.349,0.03,0.691,0.075,1.027c-0.045,1.253-0.075,2.508-0.075,3.768v7.261C10.136,162.383,0,172.761,0,185.469v19.443
	c0,12.964,10.546,23.51,23.51,23.51h2.745c6.387,23.845,21.106,44.305,40.826,58.044v10.563H25.933
	c-10.082,0-18.286,8.203-18.286,18.286v114.447c0,10.082,8.203,18.286,18.286,18.286h77.031h40.562v7.072
	c0,7.202,5.859,13.061,13.061,13.061h145.388c4.328,0,7.837-3.509,7.837-7.837c0-4.328-3.509-7.837-7.837-7.837H159.2v-4.46h4.572
	c3.845,0,7.399-1.238,10.313-3.318c1.364,0.609,2.869,0.956,4.458,0.956h55.542c6.05,0,10.971-4.921,10.971-10.971v-23.543
	c0-6.05-4.921-10.971-10.971-10.971h-52.507v-11.825c0-9.818-7.988-17.805-17.805-17.805H159.2v-85.897h64.345v47.038
	c0,7.202,5.859,13.061,13.061,13.061h39.685c7.202,0,13.061-5.859,13.061-13.061v-47.038h64.346v86.257h-3.093
	c-9.818,0-17.805,7.987-17.805,17.805v41.868c0,9.818,7.988,17.805,17.805,17.805h3.093v4.1h-21.42
	c-4.328,0-7.837,3.509-7.837,7.837c0,4.328,3.509,7.837,7.837,7.837h24.033c7.202,0,13.061-5.859,13.061-13.061v-6.712h42.043
	h74.653c10.082,0,18.286-8.203,18.286-18.286v-51.511c0-4.328-3.509-7.837-7.837-7.837c-4.328,0-7.837,3.509-7.837,7.837v51.511
	c0,1.416-1.196,2.612-2.612,2.612h-56.989c0.085-0.7,0.14-1.41,0.14-2.132v-32.429h17.998c10.082,0,18.286-8.203,18.286-18.286
	v-24.033c0-4.328-3.509-7.837-7.837-7.837s-7.837,3.509-7.837,7.837v24.033c0,1.416-1.196,2.612-2.612,2.612h-19.137
	c-2.354-6.271-8.14-10.881-15.065-11.499c-2.462-5.89-8.284-10.039-15.057-10.039h-25.42c-1.084,0-2.139,0.117-3.165,0.32v-18.858
	c5.039,2.703,10.786,4.245,16.891,4.245c19.134,0,34.82-15.058,35.873-33.964h63.93c1.416,0,2.612,1.196,2.612,2.612v33.677
	c0,4.328,3.509,7.837,7.837,7.837s7.837-3.509,7.837-7.837v-33.678c0-10.082-8.204-18.286-18.286-18.286h-60.399
	c29.265-12.189,51.751-37.522,60.076-68.607h2.745c12.964,0,23.51-10.546,23.51-23.51V185.47
	C512,172.761,501.864,162.383,489.254,161.978z M276.2,204.912v-19.443c0-4.064,3.11-7.414,7.074-7.798v23.041v0.988
	c0,3.729,0.2,7.413,0.586,11.039C279.62,212.646,276.2,209.175,276.2,204.912z M228.726,201.7v-24.03
	c3.964,0.385,7.074,3.734,7.074,7.798v19.443c0,4.262-3.421,7.732-7.661,7.827C228.528,209.113,228.726,205.43,228.726,201.7z
	 M15.673,204.912v-19.443c0-4.064,3.109-7.412,7.073-7.798v24.03c0,3.729,0.204,7.411,0.59,11.04
	C19.096,212.648,15.673,209.175,15.673,204.912z M183.245,415.874h46.137v14.139h-46.137V415.874z M86.175,382.5H71.053
	c-1.416,0-2.612-1.196-2.612-2.612v-24.033c0-4.328-3.509-7.837-7.837-7.837s-7.837,3.509-7.837,7.837v24.033
	c0,10.082,8.203,18.286,18.286,18.286h14.106v32.069c0,0.722,0.056,1.431,0.14,2.132H25.933c-1.416,0-2.612-1.196-2.612-2.612
	V315.316c0-1.416,1.196-2.612,2.612-2.612h42.163c1.179,3.461,3.303,6.721,5.947,8.863l19.301,15.642
	c2.471,2.002,5.664,3.105,8.992,3.105s6.522-1.103,8.992-3.105l6.57-5.324v28.716h-1.479c-6.773,0-12.595,4.149-15.057,10.039
	C94.307,371.272,88.44,376.047,86.175,382.5z M134.73,312.649c-2.471-2.002-5.664-3.104-8.992-3.104
	c-3.328,0-6.522,1.102-8.993,3.104l-14.407,11.675l-18.399-14.911c-0.478-0.441-1.141-1.834-1.183-2.448v-11.505
	c13.088,6.047,27.648,9.427,42.982,9.427c6.067,0,12.008-0.541,17.789-1.554v16.445L134.73,312.649z M143.526,339.202v21.497
	c-0.555-0.057-1.115-0.097-1.684-0.097h-8.268v-28.716l6.569,5.324C141.16,338.033,142.305,338.696,143.526,339.202z
	 M163.772,386.243c1.156,0,2.132,0.976,2.132,2.132v3.071h-24.141c-4.328,0-7.837,3.509-7.837,7.837
	c0,4.328,3.509,7.837,7.837,7.837h24.141v4.38h-24.141c-4.328,0-7.837,3.509-7.837,7.837s3.509,7.837,7.837,7.837h24.141v3.071
	c0,1.156-0.977,2.132-2.132,2.132h-60.808c-1.156,0-2.132-0.976-2.132-2.132v-41.868c0-1.156,0.976-2.132,2.132-2.132
	c0.763,0,1.522-0.111,2.253-0.33l4.984-1.496c3.314-0.995,5.584-4.046,5.584-7.507c0-0.332,0.304-0.635,0.636-0.635h25.42
	c0.333,0,0.636,0.303,0.636,0.635v1.496c0,4.328,3.509,7.837,7.837,7.837h13.457V386.243z M181.467,268.999h-24.88
	c-7.202,0-13.061,5.859-13.061,13.061v5.307c-5.747,1.2-11.692,1.846-17.789,1.846c-48.147,0-87.318-39.258-87.318-87.513v-35.756
	c0.888,4.392,3.02,8.579,6.41,11.978c3.734,3.743,8.507,6.054,13.663,6.712c-2.787,1.202-4.739,3.971-4.739,7.198
	c0,4.328,3.509,7.837,7.837,7.837h35.698c4.328,0,7.837-3.509,7.837-7.837c0-4.328-3.509-7.837-7.837-7.837H67.769
	c3.913-1.069,7.507-3.122,10.452-6.074c12.669-12.697,29.544-19.688,47.516-19.689c17.971,0,34.846,6.992,47.517,19.689
	c2.946,2.951,6.539,5.005,10.452,6.074h-29.52c-4.328,0-7.837,3.509-7.837,7.837c0,4.328,3.509,7.837,7.837,7.837h35.697
	c4.328,0,7.837-3.509,7.837-7.837c0-3.227-1.952-5.997-4.739-7.198c5.156-0.659,9.928-2.97,13.664-6.712
	c3.391-3.397,5.52-7.583,6.409-11.972v35.75C213.053,228.736,200.75,252.936,181.467,268.999z M273.679,329.098h-34.461v-44.426
	h34.461V329.098z M371.9,378.767v-1.496c0-0.332,0.303-0.635,0.636-0.635h25.42c0.333,0,0.636,0.303,0.636,0.635
	c0,3.46,2.27,6.512,5.584,7.507l4.984,1.496c0.73,0.219,1.489,0.33,2.253,0.33c1.156,0,2.132,0.976,2.132,2.132v41.868
	c0,1.156-0.976,2.132-2.132,2.132h-60.809c-1.156,0-2.132-0.976-2.132-2.132v-3.07h24.141c4.328,0,7.837-3.509,7.837-7.837
	c0-4.328-3.509-7.837-7.837-7.837h-24.141v-4.38h24.141c4.328,0,7.837-3.509,7.837-7.837s-3.509-7.837-7.837-7.837h-24.141v-3.071
	c0-1.156,0.977-2.132,2.132-2.132h13.457C368.391,386.603,371.9,383.095,371.9,378.767z M406.524,310.675
	c0,11.204-9.09,20.319-20.262,20.319c-7.048,0-13.261-3.633-16.891-9.124v-18.387c5.498,0.914,11.139,1.404,16.891,1.404
	c6.934,0,13.708-0.695,20.262-2.009V310.675z M473.58,154.716v13.041l-26.357-52.281c-1.332-2.642-4.039-4.308-6.998-4.308h-13.908
	c-4.328,0-7.837,3.509-7.837,7.837s3.509,7.837,7.837,7.837h9.081l38.16,75.692c-0.45,47.871-39.428,86.68-87.296,86.68
	c-5.781,0-11.424-0.588-16.891-1.674v-5.479c0-7.202-5.859-13.061-13.061-13.061h-25.778c-19.081-15.895-31.318-39.76-31.572-66.454
	l38.11-75.704h55.81c4.328,0,7.837-3.509,7.837-7.837s-3.509-7.837-7.837-7.837h-60.64c-2.96,0-5.669,1.669-7,4.312l-26.295,52.235
	v-12.999v-7.716c0-48.255,39.17-87.513,87.316-87.513c48.147,0,87.317,39.258,87.317,87.513V154.716z M496.327,204.912
	c0,4.263-3.422,7.734-7.663,7.828c0.387-3.629,0.59-7.311,0.59-11.04v-0.988v-23.041c3.964,0.386,7.073,3.734,7.073,7.798V204.912z"
	/>
<path d="M342.227,207.265c-4.328,0-7.837,3.509-7.837,7.837v11.494c0,4.328,3.509,7.837,7.837,7.837s7.837-3.509,7.837-7.837
	v-11.494C350.064,210.774,346.555,207.265,342.227,207.265z"/>
<path d="M430.358,207.265c-4.328,0-7.837,3.509-7.837,7.837v11.494c0,4.328,3.509,7.837,7.837,7.837
	c4.328,0,7.837-3.509,7.837-7.837v-11.494C438.195,210.774,434.686,207.265,430.358,207.265z"/>
<path d="M396.333,228.218h-5.548v-13.152c0-4.328-3.509-7.837-7.837-7.837s-7.837,3.509-7.837,7.837v15.764
	c0,7.202,5.859,13.061,13.061,13.061h8.161c4.328,0,7.837-3.509,7.837-7.837C404.17,231.726,400.661,228.218,396.333,228.218z"/>
<path d="M352.106,183.997h-24.008c-4.328,0-7.837,3.509-7.837,7.837c0,4.328,3.509,7.837,7.837,7.837h24.008
	c4.328,0,7.837-3.509,7.837-7.837C359.942,187.505,356.434,183.997,352.106,183.997z"/>
<path d="M412.584,191.833c0,4.328,3.509,7.837,7.837,7.837h24.706c4.328,0,7.837-3.509,7.837-7.837c0-4.328-3.509-7.837-7.837-7.837
	h-24.706C416.093,183.997,412.584,187.505,412.584,191.833z"/>
<path d="M304.825,422.499c4.328,0,7.837-3.509,7.837-7.837v-8.491c3.057,2.89,7.874,2.862,10.888-0.12
	c3.076-3.045,3.102-8.006,0.059-11.083l-13.213-13.352c-1.472-1.488-3.477-2.325-5.57-2.325s-4.099,0.837-5.571,2.325
	l-13.211,13.352c-3.044,3.076-3.018,8.038,0.06,11.083c1.528,1.511,3.519,2.265,5.512,2.265c1.936,0,3.867-0.721,5.375-2.146v8.491
	C296.988,418.99,300.497,422.499,304.825,422.499z"/>
<path d="M289.388,445.686h30.874c4.328,0,7.837-3.509,7.837-7.837s-3.509-7.837-7.837-7.837h-30.874
	c-4.328,0-7.837,3.509-7.837,7.837S285.06,445.686,289.388,445.686z"/>
<g>
</g>
<g>
</g>
<g>
</g>
<g>
</g>
<g>
</g>
<g>
</g>
<g>
</g>
<g>
</g>
<g>
</g>
<g>
</g>
<g>
</g>
<g>
</g>
<g>
</g>
<g>
</g>
<g>
</g>
</svg>
